<?xml version="1.0" encoding="utf-8"?>
<!-- Generator: Adobe Illustrator 25.0.0, SVG Export Plug-In . SVG Version: 6.00 Build 0)  -->
<svg version="1.1" id="Fond" xmlns="http://www.w3.org/2000/svg" xmlns:xlink="http://www.w3.org/1999/xlink" x="0px" y="0px"
	 viewBox="0 0 48 48" style="enable-background:new 0 0 48 48;" xml:space="preserve">
<style type="text/css">
	.st0{fill:#ffffff;}
</style>
<rect x="0" y="0" width="300" height="100" stroke="transparent" stroke-width="1" fill="#000000" />

<path class="st0" d="M42,0L4,0H6C0,0,0,0,0,0v48c0,0,0,0,0,0h48c0,0,0-0,0-0V6C48,0,48,0,48,0z M34.9,31.2
	c0.5,0.6,0.5,1.5,0,2l-3,3c-0.6,0.6-1.5,0.6-2,0l-7.6-7.6l-7.6,7.6c-0.6,0.6-1.5,0.6-2,0l-3-3c-0.5-0.6-0.5-1.5,0-2l7.6-7.6L9.7,16
	c-0.6-0.6-0.6-1.5,0-2l3-3c0.6-0.6,1.5-0.6,2,0l7.6,7.6l7.6-7.6c0.6-0.6,1.5-0.6,2,0l3,3c0.6,0.6,0.6,1.5,0,2l-7.6,7.6L34.9,31.2z"
	/>
</svg>
