<?xml version="1.0" encoding="utf-8"?>
<!-- Generator: Adobe Illustrator 25.0.0, SVG Export Plug-In . SVG Version: 6.00 Build 0)  -->
<svg version="1.1" id="Fond" xmlns="http://www.w3.org/2000/svg" xmlns:xlink="http://www.w3.org/1999/xlink" x="0px" y="0px"
	 viewBox="0 0 48 48" style="enable-background:new 0 0 48 48;" xml:space="preserve">
<style type="text/css">
	.st0{fill:#ffffff;}
</style>
<rect x="0" y="0" width="300" height="100" stroke="transparent" stroke-width="1" fill="#000000" />

<path class="st0" d="M42,0L4,0H6C0,0,0,0,0,0v48c0,0,0,0,0,0h48c0,0,0-0,0-0V6C48,0,48,0,48,0z M9.2,29.5
	c-3.1,0-5.5-2.5-5.5-5.5s2.5-5.5,5.5-5.5c3.1,0,5.5,2.5,5.5,5.5S12.3,29.5,9.2,29.5z M24,29.5c-3.1,0-5.5-2.5-5.5-5.5
	s2.5-5.5,5.5-5.5s5.5,2.5,5.5,5.5S27.1,29.5,24,29.5z M38.8,29.5c-3.1,0-5.5-2.5-5.5-5.5s2.5-5.5,5.5-5.5c3.1,0,5.5,2.5,5.5,5.5
	S41.8,29.5,38.8,29.5z"/>
</svg>
