<?xml version="1.0" encoding="utf-8"?>
<!-- Generator: Adobe Illustrator 25.0.0, SVG Export Plug-In . SVG Version: 6.00 Build 0)  -->
<svg version="1.1" id="Fond" xmlns="http://www.w3.org/2000/svg" xmlns:xlink="http://www.w3.org/1999/xlink" x="0px" y="0px"
	 viewBox="0 0 48 48" style="enable-background:new 0 0 48 48;" xml:space="preserve">
<style type="text/css">
	.st0{fill:#fff;}
</style>
<rect x="0" y="0" width="300" height="100" stroke="transparent" stroke-width="1" fill="#000000" />

<g>
	<path class="st0" d="M36.4,8.1H11.6c-2,0-3.5,1.6-3.5,3.5v24.8c0,2,1.6,3.5,3.5,3.5h24.8c2,0,3.5-1.6,3.5-3.5V11.6
		C39.9,9.7,38.3,8.1,36.4,8.1z M21.8,30.6c0,1.2-1,2.2-2.2,2.2s-2.2-1-2.2-2.2V17.4c0-1.2,1-2.2,2.2-2.2s2.2,1,2.2,2.2V30.6z
		 M30.6,30.6c0,1.2-1,2.2-2.2,2.2s-2.2-1-2.2-2.2V17.4c0-1.2,1-2.2,2.2-2.2s2.2,1,2.2,2.2V30.6z"/>
	<path class="st0" d="M42,0L4,0H6C0,0,0,0,0,0v48c0,0,0,0,0,0h48c0,0,0-0,0-0V6C48,0,48,0,48,0z M43.9,39.5
		c0,2.4-2,4.4-4.4,4.4H8.5c-2.4,0-4.4-2-4.4-4.4V8.5c0-2.4,2-4.4,4.4-4.4h30.9c2.4,0,4.4,2,4.4,4.4V39.5z"/>
</g>
</svg>
