<?xml version="1.0" encoding="utf-8"?>
<!-- Generator: Adobe Illustrator 25.0.0, SVG Export Plug-In . SVG Version: 6.00 Build 0)  -->
<svg version="1.1" id="Fond" xmlns="http://www.w3.org/2000/svg" xmlns:xlink="http://www.w3.org/1999/xlink" x="0px" y="0px"
	 viewBox="0 0 48 48" style="enable-background:new 0 0 48 48;" xml:space="preserve">
<style type="text/css">
	.st0{fill:#fff;}
</style>
<rect x="0" y="0" width="300" height="100" stroke="transparent" stroke-width="1" fill="#000000" />

<path class="st0" d="M42,0L4,0H6C0,0,0,0,0,0v48c0,0,0,0,0,0h48c0,0,0-0,0-0V6C48,0,48,0,48,0z M44,32.6
	c-0.3,0.8-1.4,1.4-2.2,1.4H6.3c-0.8,0-1.9-0.5-2.2-1.4c-0.3-0.8,0-1.6,0.6-2.5c6.1-8.7,17.7-17.5,17.7-17.5s0.5-0.5,1.7-0.5
	c1.1,0,1.7,0.5,1.7,0.5s11.6,8.8,17.7,17.5C44,30.9,44.2,31.8,44,32.6z"/>
</svg>
