<?xml version="1.0" encoding="utf-8"?>
<!-- Generator: Adobe Illustrator 25.0.0, SVG Export Plug-In . SVG Version: 6.00 Build 0)  -->
<svg version="1.1" id="Fond" xmlns="http://www.w3.org/2000/svg" xmlns:xlink="http://www.w3.org/1999/xlink" x="0px" y="0px"
	 viewBox="0 0 48 48" style="enable-background:new 0 0 48 48;" xml:space="preserve">
<style type="text/css">
	.st0{fill:#fff;}
</style>
<rect x="0" y="0" width="300" height="100" stroke="transparent" stroke-width="1" fill="#000000" />

<g>
	<circle class="st0" cx="24" cy="24" r="6.4"/>
	<path class="st0" d="M42,0L4,0H6C0,0,0,0,0,0v48c0,0,0,0,0,0h48c0,0,0-0,0-0V6C48,0,48,0,48,0z M44.9,26.5
		c0,0.4-0.3,0.8-0.8,0.9l-5.4,0.9c-0.3,1.1-0.7,2.1-1.3,3.1l3.2,4.4c0.3,0.4,0.2,0.9-0.1,1.2l-3.5,3.5c-0.3,0.3-0.8,0.4-1.2,0.1
		l-4.5-3.1c-1,0.5-2,1-3.1,1.3l-1,5.4c-0.1,0.4-0.5,0.8-0.9,0.8h-5c-0.4,0-0.8-0.3-0.9-0.8l-0.9-5.3c-1.1-0.3-2.1-0.7-3.1-1.3
		l-4.4,3.1c-0.4,0.3-0.9,0.2-1.2-0.1L7.4,37c-0.3-0.3-0.4-0.8-0.1-1.2l3.1-4.4c-0.6-1-1-2.1-1.3-3.2l-5.3-0.9
		c-0.4-0.1-0.8-0.5-0.8-0.9v-5c0-0.4,0.3-0.8,0.8-0.9l5.3-0.9c0.3-1.1,0.8-2.2,1.3-3.2l-3.1-4.4c-0.3-0.4-0.2-0.9,0.1-1.2L11,7.4
		c0.3-0.3,0.8-0.4,1.2-0.1l4.4,3.1c1-0.5,2-1,3.1-1.3l0.9-5.3c0.1-0.4,0.5-0.8,0.9-0.8h5c0.4,0,0.8,0.3,0.9,0.8l0.9,5.4
		c1.1,0.3,2.1,0.8,3.1,1.3l4.4-3.2C36.2,7,36.7,7.1,37,7.4l3.5,3.5c0.3,0.3,0.4,0.8,0.1,1.2l-3.1,4.5c0.5,1,1,2,1.3,3.1l5.4,0.9
		c0.4,0.1,0.8,0.5,0.8,0.9V26.5z"/>
</g>
</svg>
