<?xml version="1.0" encoding="utf-8"?>
<!-- Generator: Adobe Illustrator 25.0.0, SVG Export Plug-In . SVG Version: 6.00 Build 0)  -->
<svg version="1.1" id="Fond" xmlns="http://www.w3.org/2000/svg" xmlns:xlink="http://www.w3.org/1999/xlink" x="0px" y="0px"
	 viewBox="0 0 48 48" style="enable-background:new 0 0 48 48;" xml:space="preserve">
<style type="text/css">
	.st0{fill:#fff;}
</style>
<rect x="0" y="0" width="300" height="100" stroke="transparent" stroke-width="1" fill="#000000" />

<g>
	<path class="st0" d="M24,5.5C13.8,5.5,5.5,13.8,5.5,24c0,10.2,8.3,18.5,18.5,18.5c10.2,0,18.5-8.3,18.5-18.5
		C42.5,13.8,34.2,5.5,24,5.5z M38.3,27c0,0.6-0.3,1.2-0.7,1.6l0,0l-8.4,7.8c-1.4,1.4-3.4,2.4-5.6,2.4H21c-4.8,0-8.7-3.9-8.7-8.7
		v-1.7v-6.1v-6.1c0-1,0.8-1.7,1.7-1.7c1,0,1.7,0.8,1.7,1.7v6.1c0,0.5,0.4,0.9,0.9,0.9c0.5,0,0.9-0.4,0.9-0.9v-9.5
		c0-1,0.8-1.7,1.7-1.7s1.7,0.8,1.7,1.7v9.5c0,0.5,0.4,0.9,0.9,0.9s0.9-0.4,0.9-0.9V11c0-1,0.8-1.7,1.7-1.7c1,0,1.7,0.8,1.7,1.7v11.3
		c0,0.5,0.4,0.9,0.9,0.9s0.9-0.4,0.9-0.9v-7.8c0-1,0.8-1.7,1.7-1.7s1.7,0.8,1.7,1.7v7.8v2.6v3.6l3.3-3.1l0,0
		c0.4-0.3,0.9-0.6,1.4-0.6C37.4,24.9,38.3,25.8,38.3,27z"/>
	<path class="st0" d="M42,0L4,0H6C0,0,0,0,0,0v48c0,0,0,0,0,0h48c0,0,0-0,0-0V6C48,0,48,0,48,0z M24,45.9
		C11.9,45.9,2.1,36.1,2.1,24C2.1,11.9,11.9,2.1,24,2.1c12.1,0,21.9,9.8,21.9,21.9C45.9,36.1,36.1,45.9,24,45.9z"/>
</g>
</svg>
